<?xml version="1.0" encoding="utf-8"?>
<!-- Generator: Adobe Illustrator 27.5.0, SVG Export Plug-In . SVG Version: 6.00 Build 0)  -->
<svg version="1.1" id="Layer_1" xmlns="http://www.w3.org/2000/svg" xmlns:xlink="http://www.w3.org/1999/xlink" x="0px" y="0px"
	 viewBox="0 0 159.7 119.4" style="enable-background:new 0 0 159.7 119.4;" xml:space="preserve">
<style type="text/css">
	.st0{fill:#FFFFFF;}
</style>
<path class="st0" d="M35.1,63.6c0.9-5.4,1.5-7.3,2.8-10c1.1-2.3,2.3-3.9,4.3-5.9c2.9-2.8,6.7-5.4,11.3-7.4c6-2.7,25.6-10,26.8-10
	c0.2,0,0.2,0,0,0.4c-0.6,1.5-3.3,6.4-8.6,15.8L69,51.2L52,58c-9.3,3.7-17,6.8-17.1,6.8C34.9,64.8,35,64.2,35.1,63.6"/>
<g>
	<path class="st0" d="M50.2,74.3c-1.8-0.3-4.6-1.3-7.5-2.7c-3.2-1.6-5.7-3.2-7-4.5c-0.7-0.7-1-1.2-0.8-1.6c0-0.1,0.1-0.2,0.2-0.2
		c0.5-0.2,4.6-0.6,10-1c3.2-0.2,13.9-0.9,14-0.9c0.1,0-0.1,0.4-1.4,2.6c-2.2,3.8-2.7,4.6-3.7,6c-0.9,1.3-1.8,2.1-2.2,2.3
		C51.5,74.4,50.7,74.4,50.2,74.3"/>
	<path class="st0" d="M0.6,119.2c-0.7-0.3-0.8-1.1-0.4-3c0.2-0.9,3.1-11.5,3.2-11.6c0,0,2.9-1.1,6.4-2.4
		c22.7-8.6,29.8-11.5,35.9-14.6c4.9-2.5,7.2-4.2,8.1-6.2c0.3-0.6,0.3-1.7,0.1-2.4c-0.2-0.5-0.8-1.4-1.4-2.2
		c-0.7-0.9-0.6-1.4,0.6-2.6c1.9-1.8,7.1-5.7,9.3-6.9c1.4-0.7,2.7-1,3.6-0.7c1.1,0.4,2,1.4,3.3,3.4c3.2,5.4,3.6,11,1.1,16.1
		c-0.8,1.7-2.2,3.6-3.9,5.3c-4.1,4.1-10.1,7.4-22,12.1c-1.4,0.5-9.2,3.5-17.4,6.7s-15.7,6-16.8,6.5C3.8,119.1,1.6,119.7,0.6,119.2"
		/>
</g>
<path class="st0" d="M83.8,40.4c-0.2-2.4-0.4-5.8-0.5-7.5l-0.1-3.1l1.2-0.5C90.9,26.3,158.6,0,159.6,0c0.4,0-1.8,15.4-2.3,15.8
	c-0.1,0.1-3,1.3-6.4,2.7c-10.9,4.4-65.8,26-66.4,26.1C84.3,44.7,84.2,44.1,83.8,40.4"/>
<path class="st0" d="M91,86.3c0-0.1,0.1-0.6,0.2-1c0.6-3.6,8.1-40.6,8.2-40.6c0.1-0.1,10-7.1,11.1-7.9c1.7-1.2,4.7-3.2,5.5-3.7
	c0.6-0.3,0.6-0.4,0.6-0.2c0.2,1.1-6.3,30.8-9.3,43.1c-0.9,3.6-1.1,4.1-1.3,4.4c-0.7,0.9-12.1,5.5-14.8,6
	C90.9,86.5,90.9,86.5,91,86.3"/>
</svg>
